<svg id="Layer_1" data-name="Layer 1" xmlns="http://www.w3.org/2000/svg" viewBox="0 0 88 94"><defs><style>.cls-1{fill:#fefefe;}.cls-2{fill:#535353;}</style></defs><ellipse class="cls-1" cx="44" cy="47" rx="62.23" ry="66.47"/><path class="cls-2" d="M305.83,391V379.38H302l-.18-4h-3.69V379l-4,.45V383l-4,.35v3.75h3.7V391h-7.74c-.15-2.35,0-4.93-.05-7.5s0-5.22,0-8h-3.76l-.32-4-3.77-.21v-3.82h-3.84v-3.75l-4-.41v-3.69l-4-.17V335.92h3.81v7.54H274l.39,4h3.72v3.95h7.8v-3.57l4-.45v-3.65h6l.22-4h5.73l.18-3.85h3.17c.31-.29.53-.4.53-.52,0-8.35,0-16.71,0-25.24h3.93l.31-4h31.44v3.72l3.84.18v17.41c.08-.09,0,0-.14.15a.85.85,0,0,1-.42.17H325.8v3.83h11.56v4H321.79v7.81h7.64c.31,2.69.08,5.24.18,7.94H325.8l-.3-3.66h-3.76v13.61l-3.84.18v5.6l-4,.43v3.62l-4,.29v15.66h3.73V391Z" transform="translate(-262.35 -302.08)"/><path class="cls-1" d="M313.94,312.05h3.61v3.72l-3.61.19Z" transform="translate(-262.35 -302.08)"/></svg>